<svg xmlns="http://www.w3.org/2000/svg" viewBox="0 0 916 160" width="916" height="160">
	<defs>
		<clipPath clipPathUnits="userSpaceOnUse" id="cp1">
			<path d="M-140 -17L1300 -17L1300 5801L-140 5801Z" />
		</clipPath>
	</defs>
	<style>
		tspan { white-space:pre }
		.shp0 { fill: #898989 } 
	</style>
	<g id="1.0 Home" clip-path="url(#cp1)">
		<g id="Group 370">
			<g id="Group 365">
				<g id="Group 365">
					<path id="Path 407" class="shp0" d="M223.58 5.61C220.65 6.72 210.97 7.44 210.97 18.04L210.97 118.36C210.97 128.96 220.65 129.69 223.58 130.79C224.12 130.97 224.12 132.25 224.12 132.25L190.51 132.25C190.51 132.25 190.51 130.97 191.05 130.79C193.97 129.69 203.66 128.96 203.66 118.36L203.66 18.04C203.66 7.44 193.97 6.72 191.05 5.61C190.51 5.44 190.51 4.34 190.51 4.34L224.12 4.34C224.12 4.34 224.12 5.44 223.58 5.61Z" />
					<path id="Path 408" fill-rule="evenodd" class="shp0" d="M246.05 132.25C246.05 132.25 246.05 130.97 246.59 130.79C249.52 129.69 259.2 128.96 259.2 118.36L259.2 17.31C258.65 7.44 249.34 6.72 246.59 5.61C246.05 5.44 246.05 4.34 246.05 4.34L289.9 4.34C326.09 4.88 355.69 31.93 355.69 68.29C355.69 104.84 326.09 131.88 289.9 132.25L246.05 132.25ZM288.99 7.99L266.51 7.99L266.51 119.09C266.87 128.96 276.01 128.6 279.12 128.6L288.99 128.6C319.14 128.6 347.46 103.01 347.46 68.29C347.46 33.58 319.14 7.99 288.99 7.99Z" />
					<path id="Path 409" class="shp0" d="M458.19 4.34L458.19 21.15C458.19 21.15 456.91 21.15 456.73 20.6C455.63 17.86 454.9 8.54 445.03 7.99L390.76 7.99L390.76 66.47L434.97 66.47C444.85 66.1 445.39 56.78 446.49 53.86C446.67 53.31 447.95 53.31 447.95 53.31L447.95 83.28C447.95 83.28 446.67 83.28 446.49 82.73C445.39 79.99 444.85 70.67 434.97 70.12L390.76 70.12L390.76 118.36L390.76 119.09C391.13 128.96 400.26 128.6 403.37 128.6L448.68 128.6C458.92 128.23 464.4 118.91 465.5 115.99C465.68 115.44 466.96 115.44 466.96 115.44L461.66 132.25L370.29 132.25C370.29 132.25 370.29 130.97 370.84 130.79C373.58 129.69 382.9 128.96 383.45 119.09L383.45 18.04L383.45 17.31C382.9 7.44 373.58 6.72 370.84 5.61C370.29 5.44 370.29 4.34 370.29 4.34L458.19 4.34Z" />
					<path id="Path 410" class="shp0" d="M493.96 36.32C493.96 76.15 571.8 53.31 571.8 101.73C571.8 137.92 510.22 146.14 489.21 116.17L487.2 96.62C487.2 96.07 488.29 95.89 488.29 95.89C501.63 144.86 564.49 137.55 564.49 101.73C564.49 65.37 487.38 83.28 487.38 36.86C487.38 -2.79 542.38 -9.37 563.4 20.78C562.85 27 561.38 35.58 561.38 35.58C561.38 36.32 560.11 36.32 560.11 36.32C547.32 -9.37 493.96 -0.05 493.96 36.32Z" />
				</g>
				<g id="Group 366">
					<g id="Group 240">
						<path id="Path 413" fill-rule="evenodd" class="shp0" d="M712.78 128.86C709.43 132 705.03 133.98 701.16 133.98C695.33 133.98 692.53 131.54 691.9 127.96C691.76 127.17 691.74 126.34 691.79 125.46C687.57 131.34 683.54 133.98 680.61 133.98C677.43 133.98 675.74 132.42 675.28 129.85C672.81 115.84 705.51 70.55 711.61 70.55C713.77 70.55 714.94 71.43 715.22 72.98C716.52 80.36 698.68 102.43 684.72 115.02C682.23 121.25 680.8 126.6 681.29 129.38C681.53 130.73 682.21 131.54 683.51 131.54C685.29 131.54 688.19 128.55 692.25 122.64C694.53 113.64 704.38 102.57 712.88 102.57C715.11 102.57 716.26 103.72 716.57 105.48C717.49 110.69 710.34 121.18 697.77 121.73C697.61 123.08 697.63 124.37 697.83 125.52C698.36 128.5 700.22 130.6 703.94 130.6C708.01 130.6 711.58 128.22 714.02 125.58C715 124.47 715.89 123.1 716.91 121.56L725.31 106.7C725.99 105.55 726.74 105.55 728.16 105.55C729.24 105.55 730.41 105.68 730.52 106.29C730.54 106.43 730.49 106.5 730.45 106.63C730.45 106.63 725.64 114.69 722.09 122.94C724.65 119.83 731.95 112.86 737.37 107.92C738.3 107.04 739.41 106.76 740.29 106.76C741.37 106.76 742.18 107.17 742.26 107.58C742.28 107.71 742.24 107.85 742.11 107.92C739.28 111.03 737.06 116.11 735.09 119.9C740.57 113.74 751.19 103.72 755.65 103.72C756.06 103.72 756.24 103.92 756.28 104.19C756.34 104.53 756.22 105 756.1 105.07C747.09 114.62 743.91 125.79 745.15 132.83C745.91 137.1 748.3 139.94 752.02 139.94C754.94 139.94 757.54 137.84 757.54 137.84C757.75 137.84 757.91 137.98 757.94 138.18C757.97 138.32 757.91 138.38 757.8 138.52C754.01 141.63 750.59 142.92 747.74 142.92C742.74 142.92 740.36 140.21 739.68 136.35C738.24 128.16 744.27 114.76 748.75 109.88C748.72 109.68 748.58 109.68 748.45 109.68C744.54 111.3 733.64 122.81 729.36 131.61C729.13 132.15 728 132.29 727.19 132.29C726.17 132.29 724.3 132.08 724.12 131.07C724.06 130.73 724.21 130.39 724.52 129.85C726.78 126.54 730.43 118.82 732.33 114.62C732.29 114.42 732.16 114.42 732.02 114.42C727.66 119.22 723.07 123.56 719.24 129.11C718.1 130.32 716.45 133.24 714.35 133.24C713 133.24 711.97 132.36 711.69 130.8L712.78 128.86ZM698.16 119.7L698.63 119.7C706.69 119.7 712.96 111.1 712.28 107.24C712.09 106.16 711.35 105.41 709.86 105.41C704.78 105.41 699.68 112.93 698.16 119.7ZM685.96 112.11C697.54 101.35 712.88 79.69 712.13 75.42C712.04 74.95 711.72 74.68 711.26 74.68C706.24 74.68 693.16 95.66 685.96 112.11Z" />
						<path id="Path 414" fill-rule="evenodd" class="shp0" d="M811.48 142.65C812.35 147.59 808.11 150.02 803.37 150.02C795.86 150.02 792.35 145.9 791.36 140.21L791.24 139.6C769.1 143.39 753.79 152.33 732.34 152.33C719.95 152.33 712.52 149.96 711.53 144.34C711.07 141.77 712.41 139.34 716.02 137.58C717.46 147.12 727.19 148.06 739.17 148.06C760.16 148.06 770.02 140.95 791.01 137.1C790.73 127.48 795.8 115.16 800.49 109.88C800.45 109.68 800.32 109.68 800.19 109.68C798.43 109.68 784.82 125.86 782.15 129.11C781.09 130.39 779.36 133.24 777.26 133.24C775.91 133.24 774.87 132.36 774.6 130.8L786.39 109.93C783.84 111.88 780.26 114.04 776.78 114.28C774.02 123.22 766.68 133.78 756.52 133.78C753.48 133.78 751.99 132.22 751.56 129.78C750.05 121.25 762.26 102.16 774.1 102.16C776.27 102.16 777.39 103.52 777.75 105.55C778.04 107.24 777.88 109.41 777.41 111.71C782.34 111.89 786.31 108.31 788.3 106.57C788.95 105.56 789.57 105.55 791.06 105.55C792.14 105.55 793.32 105.68 793.42 106.29C793.45 106.43 793.4 106.5 793.35 106.63C793.35 106.63 788.54 114.69 784.99 122.94C788.88 118.14 801.77 103.72 807.39 103.72C807.8 103.72 807.97 103.92 808.02 104.19C808.08 104.53 807.96 105 807.84 105.07C798.2 114.55 795.69 127.21 797.14 136.22C798.08 136.15 798.96 136.15 799.84 136.15C807.22 136.15 810.89 139.26 811.48 142.65ZM774.22 114.35C770.24 114.01 768.31 111.91 767.89 109.54C767.67 108.32 767.86 107.1 768.41 105.95C762.22 110.42 756.47 122.74 757.21 126.94C757.58 129.04 758.84 129.99 760.53 129.99C766.96 129.99 772.18 121.59 774.22 114.35ZM774.94 106.5C774.73 105.34 774.32 104.53 773.64 104.53C772.18 104.67 771.4 106.43 771.71 108.19C771.96 109.61 772.95 110.96 774.8 111.5C775.16 109.68 775.17 107.85 774.94 106.5ZM808.2 143.6C807.76 141.16 805.18 138.79 799.16 138.79L797.67 138.79C799.06 144 801.98 147.52 805.57 147.52C807.33 147.52 808.65 146.17 808.2 143.6Z" />
						<path id="Path 415" fill-rule="evenodd" class="shp0" d="M838.44 138.11C838.45 138.18 838.41 138.32 838.37 138.52C834.59 141.63 831.16 142.92 828.32 142.92C824.66 142.92 822.77 141.02 822.22 137.91C819.33 121.52 852.93 70.55 860.92 70.55C863.08 70.55 864.26 71.43 864.53 72.98C865.86 80.57 846.98 103.65 832.87 116.11C829.57 124.3 827.55 131.68 828.32 136.01C828.76 138.52 830.09 139.94 832.6 139.94C835.51 139.94 838.11 137.84 838.11 137.84C838.11 137.84 838.39 137.84 838.44 138.11ZM834.1 113.13C845.76 102.84 862.21 79.82 861.44 75.42C861.35 74.95 861.03 74.68 860.56 74.68C855.34 74.68 841.96 95.12 834.1 113.13Z" />
						<path id="Path 416" fill-rule="evenodd" class="shp0" d="M913.41 122C912.31 123.82 911.23 125.38 910.12 126.8C906.69 131.14 901.24 133.98 896.57 133.98C890.75 133.98 887.94 131.54 887.31 127.96C886.35 122.48 890.37 114.47 895.95 108.92C894.42 109.34 892.77 109.6 891.24 109.53L889.75 109.4C885.91 120.24 876.71 133.17 868.18 133.17C866.15 133.17 865.07 132.02 864.72 130.05C863.95 125.68 866.81 117.64 869.62 111.55C868.22 112.89 865.85 113.96 863.76 114.28C861.01 123.22 853.66 133.78 843.51 133.78C840.46 133.78 838.97 132.22 838.54 129.78C837.03 121.25 849.24 102.16 861.09 102.16C863.25 102.16 864.37 103.52 864.73 105.55C865.03 107.24 864.87 109.41 864.39 111.71C866.21 111.64 868.95 110.91 871.12 108.46C872.06 106.64 872.91 105.18 873.52 104.33C874.34 103.18 874.81 103.18 876.36 103.18C877.45 103.18 878.62 103.31 878.73 103.92C878.74 103.99 878.59 104.26 878.59 104.26C875.13 110.02 869.83 121.79 870.68 126.6C870.91 127.89 871.59 128.7 872.88 128.7C877.41 128.7 884.02 118 887.4 109.13C883.94 108.32 882.09 105.88 881.63 103.31C880.99 99.66 883.21 95.73 887.81 95.73C889.91 95.73 891.02 97.02 891.39 99.12C891.73 101.08 891.39 103.72 890.56 106.7C890.56 106.7 891.21 107.03 893.03 107.12C896.22 107.28 897.95 106.78 899.19 106.13C902.13 103.95 905.29 102.57 908.29 102.57C910.53 102.57 911.68 103.72 911.98 105.48C912.91 110.69 905.75 121.18 893.19 121.73C893.02 123.08 893.04 124.37 893.24 125.52C893.77 128.5 895.63 130.6 899.35 130.6C903.41 130.6 906.99 128.22 909.43 125.58C910.56 124.3 911.57 122.68 912.8 120.85C912.8 120.85 913.37 121.05 913.46 121.52C913.49 121.66 913.51 121.79 913.41 122ZM871.12 108.47L871.13 108.46C871.13 108.46 871.13 108.46 871.12 108.46C871.12 108.46 871.12 108.47 871.12 108.47ZM861.2 114.35C857.22 114.01 855.29 111.91 854.87 109.54C854.66 108.32 854.85 107.1 855.39 105.95C849.2 110.42 843.46 122.74 844.19 126.94C844.57 129.04 845.82 129.99 847.51 129.99C853.94 129.99 859.17 121.59 861.2 114.35ZM861.92 106.5C861.72 105.34 861.3 104.53 860.62 104.53C859.16 104.67 858.38 106.43 858.69 108.19C858.95 109.61 859.93 110.96 861.79 111.5C862.14 109.68 862.16 107.85 861.92 106.5ZM889.32 99.66C889.11 98.5 888.59 97.83 887.5 97.83C885.68 97.83 884.87 99.79 885.23 101.82C885.51 103.45 886.57 105.21 888.42 106.09C889.17 103.45 889.58 101.15 889.32 99.66ZM893.57 119.7L894.04 119.7C902.1 119.7 908.37 111.1 907.69 107.24C907.5 106.16 906.76 105.41 905.27 105.41C900.19 105.41 895.09 112.92 893.57 119.7Z" />
					</g>
				</g>
				<g id="Group 367">
					<path id="Path 417" fill-rule="evenodd" class="shp0" d="M630.28 119.38C630.28 123.46 628.99 126.9 626.42 129.68C623.83 132.47 620.84 133.85 617.43 133.85C615.94 133.85 614.47 133.63 613.02 133.16C611.58 132.7 610.22 132.08 608.95 131.31L606.91 134.49L605.19 134.1C605.28 132.74 605.35 131.1 605.38 129.18C605.42 127.26 605.44 125.41 605.44 123.63L605.44 96.64C605.44 96.02 605.29 95.39 605.01 94.76C604.73 94.14 604.37 93.68 603.92 93.41C603.57 93.17 602.98 92.99 602.17 92.87C601.35 92.75 600.69 92.67 600.19 92.63L600.19 90.86L610.19 90.26L610.58 90.67L610.58 108.63L610.77 108.68C611.92 107.47 613.17 106.56 614.52 105.95C615.87 105.34 617.2 105.04 618.51 105.04C621.86 105.04 624.66 106.37 626.91 109.02C629.16 111.67 630.28 115.12 630.28 119.38ZM624.51 119.57C624.51 118.21 624.36 116.82 624.06 115.4C623.77 113.98 623.3 112.75 622.68 111.7C622.05 110.63 621.24 109.76 620.22 109.1C619.21 108.44 617.99 108.11 616.58 108.11C615.28 108.11 614.16 108.36 613.19 108.86C612.22 109.37 611.35 110.06 610.58 110.93L610.58 126.78C610.69 127.22 610.91 127.74 611.23 128.33C611.55 128.92 611.99 129.48 612.54 130.01C613.09 130.53 613.72 130.95 614.42 131.27C615.12 131.6 615.98 131.75 616.99 131.75C619.24 131.75 621.05 130.67 622.43 128.5C623.81 126.33 624.51 123.35 624.51 119.57Z" />
					<path id="Path 418" class="shp0" d="M632.24 141.92C632.24 141 632.49 140.25 633 139.67C633.5 139.09 634.13 138.8 634.89 138.8C635.48 138.8 635.99 138.91 636.41 139.13C636.83 139.35 637.21 139.63 637.54 139.98C637.82 140.25 638.11 140.63 638.43 141.11C638.74 141.58 638.99 141.97 639.17 142.28C640.09 141.78 641.19 140.49 642.47 138.39C643.75 136.3 644.68 134.46 645.25 132.88C643.5 128.52 641.92 124.61 640.5 121.17C639.08 117.73 637.6 114.16 636.05 110.48C635.7 109.64 635.11 108.98 634.28 108.5C633.46 108.04 632.62 107.74 631.8 107.61L631.8 105.79L644.24 105.79L644.24 107.72C643.68 107.74 643.02 107.85 642.25 108.07C641.47 108.28 641.08 108.56 641.08 108.93C641.29 109.49 641.42 109.89 641.5 110.15C642.2 111.97 643.26 114.6 644.7 118.03C646.13 121.46 647.24 124.21 648.03 126.27C648.86 124.3 649.72 122.26 650.62 120.15C651.51 118.05 652.51 115.56 653.62 112.68C653.75 112.34 653.94 111.86 654.17 111.24C654.41 110.62 654.53 110.09 654.53 109.65C654.53 109.17 654.11 108.72 653.27 108.31C652.44 107.9 651.64 107.64 650.88 107.55L650.88 105.79L661 105.79L661 107.5C660.45 107.59 659.72 107.91 658.82 108.45C657.92 108.99 657.24 109.76 656.8 110.76C654.61 115.84 652.66 120.47 650.96 124.65C649.25 128.83 647.96 131.91 647.08 133.88C645.92 136.46 644.88 138.47 643.97 139.92C643.06 141.37 642.17 142.5 641.3 143.33C640.45 144.1 639.69 144.62 639 144.89C638.3 145.16 637.59 145.29 636.85 145.29C635.42 145.29 634.29 144.95 633.47 144.27C632.65 143.59 632.24 142.81 632.24 141.92Z" />
				</g>
				<g id="Group 368">
					<path id="Path 411" fill-rule="evenodd" class="shp0" d="M58.83 132.23L0 132.23C0 132.23 0 130.95 0.54 130.77C3.47 129.68 13.15 128.94 13.15 118.35L13.15 17.3C12.61 7.44 3.29 6.71 0.54 5.61C0 5.43 0 4.33 0 4.33L43.85 4.33C90.26 4.33 96.65 53.12 63.22 66.64C109.44 70.29 107.8 132.23 58.83 132.23ZM58.83 70.11L29.07 70.11L29.07 66.46L43.85 66.46C86.79 66.46 86.79 7.99 43.85 7.99L20.46 7.99L20.46 119.08C20.83 128.94 29.96 128.58 33.07 128.58L58.83 128.58C98.3 128.58 98.48 70.11 58.83 70.11Z" />
					<g id="Group 237">
						<path id="Path 412" class="shp0" d="M229 144.18C223.06 148.26 210.43 151.21 196.6 147.57C162.43 138.59 139.08 83.2 116.37 70.11C175.02 69.2 174.48 4.33 115.09 4.33L94.99 4.33L94.99 7.99L110.34 7.99C165.53 7.99 165.53 66.46 110.34 66.46L94.99 66.46L94.99 70.11L102.85 70.11C123.57 70.59 159.67 142.98 190.85 154.67C214.75 163.64 228.66 150.37 232.44 141.53C232.55 141.28 232.66 140.91 232.39 140.84C232.2 140.8 231.98 141 231.73 141.42C231.26 142.23 230 143.5 229 144.18Z" />
					</g>
				</g>
			</g>
		</g>
	</g>
</svg>